<?xml version="1.0" standalone="no"?>
<!DOCTYPE svg PUBLIC "-//W3C//DTD SVG 20010904//EN"
 "http://www.w3.org/TR/2001/REC-SVG-20010904/DTD/svg10.dtd">
<svg version="1.0" xmlns="http://www.w3.org/2000/svg"
 width="200.000000pt" height="200.000000pt" viewBox="0 0 200.000000 200.000000"
 preserveAspectRatio="xMidYMid meet">
<metadata>
Created by potrace 1.14, written by Peter Selinger 2001-2017
</metadata>
<g transform="translate(0.000000,200.000000) scale(0.100000,-0.100000)"
fill="#000000" stroke="none">
<path d="M1740 1920 c-102 -26 -381 -98 -620 -159 -239 -61 -445 -113 -456
-117 l-21 -6 -1 -491 c0 -271 -1 -500 -1 -509 -1 -14 -10 -10 -52 17 -172 117
-408 50 -496 -140 -23 -51 -28 -73 -28 -145 0 -73 4 -93 27 -141 64 -130 198
-208 336 -196 84 8 160 44 217 103 98 103 101 123 100 643 0 415 0 423 20 431
18 7 246 67 285 75 8 2 107 27 220 55 113 28 212 53 220 55 8 2 80 20 160 40
80 20 155 39 166 41 21 4 21 4 22 -291 0 -162 -2 -295 -5 -295 -3 0 -19 10
-36 23 -192 136 -453 45 -521 -181 -54 -183 63 -387 244 -427 163 -36 310 34
387 185 l28 55 3 713 c1 391 -1 712 -5 711 -4 0 -91 -22 -193 -49z"/>
</g>
</svg>
